<?xml version="1.0" encoding="UTF-8"?><svg id="Layer_2" xmlns="http://www.w3.org/2000/svg" viewBox="0 0 758.54 338.41"><defs><style>.cls-1{fill:#0079c1;}</style></defs><g id="Layer_2-2"><path class="cls-1" d="m218.63,132.1l-1.14,1.14c-.35.35-1.05.64-1.54.64h-5.44c-.5,0-1.18-.3-1.53-.64l-1.14-1.14c-.35-.35-1.04-.64-1.54-.64h-.61c-.49,0-1.18.29-1.53.64l-1.15,1.14c-.35.35-1.04.64-1.53.64h-.61c-.5,0-1.19-.3-1.54-.64l-1.14-1.14c-.35-.35-.63-1.05-.63-1.54v-.62c0-.49.29-1.18.63-1.53l3.56-3.55c.35-.35,1.03-.63,1.53-.63h.62c.5,0,1.17.27,1.5.6.33.33.33.88,0,1.2-.33.34-.33.87,0,1.21.33.33.89.32,1.23-.03l4.76-4.76c.35-.36,1.04-.64,1.54-.64h.62c.5,0,.7.35.46.78l-1.35,2.4c-.25.43-.22,1.12.06,1.52l1.22,1.8c.28.41.91.74,1.41.74h.61c.49,0,1.19.29,1.54.63l1.14,1.14c.35.36.35.93,0,1.28m44.4-53.74l-9.08.02c-.5,0-1.18-.28-1.53-.63l-1.15-1.14c-.35-.36-1.04-.64-1.54-.64h-3.03c-.5,0-1.18.28-1.53.64l-1.14,1.14c-.35.35-1.05.63-1.54.63h-7.02c-.49,0-1.24.21-1.67.47l-6.53,3.91c-.42.25-1.12.66-1.54.92l-10.52,6.31c-.42.25-1.17.47-1.67.47h-3.03c-.5,0-1.05-.38-1.23-.84l-.93-2.44c-.18-.47-.64-1.1-1.02-1.41l-2.46-1.99c-.38-.3-.29-.58.21-.61l.6-.03c.49-.02,1.19.23,1.56.57l.96.87c.37.33,1.07.66,1.56.73l1.38.19c.49.06,1.29.13,1.79.13h.62c.5,0,1.18-.29,1.54-.63l1.14-1.15c.35-.35.64-1.04.64-1.54v-.61c0-.5-.36-1.08-.81-1.3l-3.21-1.61c-.44-.22-1.18-.55-1.65-.73l-10.38-4.16c-.47-.18-1.23-.44-1.71-.56l-7.45-1.99c-.48-.13-1.26-.14-1.75-.04l-3.35.73c-.48.11-1.16.48-1.51.83l-4.47,4.46c-.35.35-.9.94-1.23,1.32l-4.56,5.28c-.32.37-.93.9-1.34,1.16l-5.04,3.19c-.42.27-.99.82-1.25,1.23l-1.68,2.56c-.27.41-.49,1.16-.48,1.65l.05,4.49c0,.5.35,1.13.75,1.41l2.07,1.41c.41.27,1.12.65,1.57.85l.75.31c.45.2,1.11.06,1.47-.29l2.34-2.35c.35-.35.75-.25.9.22l.41,1.32c.14.47.38,1.24.54,1.72l.39,1.2c.15.47.4,1.17.56,1.56.16.39.41.95.56,1.25.15.3.68.54,1.17.54h1.24c.49,0,1.09-.35,1.32-.79l.09-.18c.23-.44.75-.94,1.16-1.11.41-.18.74-.73.74-1.22v-3.03c0-.49.32-1.16.7-1.47l1.08-.88c.38-.31.43-.87.11-1.24l-1.29-1.46c-.32-.37-.32-.97,0-1.34l2.12-2.35c.33-.36.76-1.04.95-1.49l.8-1.91c.2-.45.64-1.11.99-1.46l1.14-1.14c.35-.35,1.04-.63,1.53-.63h.62c.49,0,1,.39,1.14.87l.04.12c.14.48-.07,1.11-.47,1.41l-2.44,1.88c-.39.3-.71.96-.71,1.45v3.03c0,.5.05,1.3.12,1.79l.09.61c.07.49.52.96,1,1.06l.94.18c.48.1,1.28.1,1.77,0l5.1-1.01c.48-.1.7.19.47.63l-.52,1c-.24.44-.82.85-1.31.91l-3.43.44c-.48.06-.89.52-.89,1.01v.61c0,.5.26,1.17.6,1.5.33.34.33.88,0,1.21-.34.33-.89.32-1.24-.03l-1.14-1.13c-.35-.36-.92-.36-1.27,0l-1.14,1.13c-.35.35-.64,1.04-.64,1.54v.61c0,.49.27,1.17.61,1.5.33.33.3.88-.05,1.23l-1.22,1.16c-.35.34-1.05.63-1.55.63h-10.17c-.49,0-1.19-.29-1.53-.64l-1.14-1.14c-.35-.35-.35-.92,0-1.27l1.14-1.14c.35-.35.35-.92,0-1.27l-1.14-1.15c-.35-.34-.91-.36-1.24-.03-.33.33-.73.99-.89,1.46l-1.84,5.54c-.15.47-.69.85-1.18.85h-.62c-.5,0-1.18.29-1.54.63l-5.97,5.97c-.35.35-1.04.63-1.53.63h-3.03c-.49,0-1.17.27-1.5.61-.33.33-.32.89.03,1.24l3.56,3.56c.35.35.51,1.02.36,1.49l-.64,1.91c-.15.48-.69.86-1.18.84l-5.69-.06c-.49,0-1.12.33-1.4.74l-1.6,2.41c-.28.41-.45,1.15-.38,1.64l.21,1.64c.06.5-.15,1.17-.49,1.5-.33.33-.32.89.03,1.25l2.35,2.34c.35.35,1.04.63,1.53.63h3.03c.49,0,1.19-.28,1.54-.63l3.55-3.55c.35-.35.63-1.05.63-1.54v-.61c0-.49.41-.9.9-.9h.62c.49,0,1.16-.32,1.48-.7l3.31-3.93c.31-.38.95-.83,1.42-1l3.5-1.31c.47-.17,1.13-.03,1.48.32l5.96,5.97c.35.35,1.84,1.84,2.17,2.16.32.33.59,1.06.31,1.56-.28.5-.62.91-.63,1.46,0,.63.68.88,1.04.82.35-.06,1.13-.84,1.13-.84.35-.35.96-.88,1.33-1.2l.55-.46c.38-.31.45-.9.14-1.29l-6.37-8.14c-.3-.39-.22-.93.2-1.2l2.12-1.39c.41-.27.99-.17,1.29.23l5.27,7c.3.39.27.99-.06,1.32-.33.33-.33.91,0,1.28l2.53,2.86c.33.37,1,.67,1.5.67h.61c.5,0,.66-.33.37-.73l-.25-.34c-.3-.39-.25-1.01.1-1.36l1.14-1.15c.35-.35,1.03-.55,1.51-.46l2.94.57c.48.1.91.5.93.9.03.4-.21,1-.54,1.35-.32.35-.3.91.05,1.27l2.34,2.34c.35.35,1.05.63,1.54.63h7.85c.5,0,.89.41.88.9l-.05,1.74c0,.49-.38,1.08-.82,1.3l-5.04,2.52c-.44.21-1.19.53-1.66.69l-8.2,2.73c-.47.16-1.14,0-1.49-.35l-1.21-1.22c-.35-.35-1.05-.63-1.54-.63h-.69c-.49,0-1.18.29-1.53.63l-1.22,1.22c-.35.35-.64,1.04-.64,1.54v.69c0,.49-.4.9-.9.9h-3.18c-.49,0-1.26-.19-1.7-.4l-8.34-4.17c-.44-.22-1.14-.63-1.54-.91l-5.75-3.96c-.41-.28-1.15-.51-1.64-.51h-5.88c-.49,0-1.19.29-1.53.63l-1.22,1.22c-.35.35-1.04.64-1.53.64h-3.18c-.49,0-1.19.29-1.53.63l-1.22,1.22c-.35.35-.92.92-1.27,1.27l-8.68,8.69c-.35.35-.8,1-1,1.46l-1.12,2.57c-.2.46-.37,1.23-.39,1.73l-.58,16.37c-.02.49.15,1.26.37,1.7l1.68,3.36c.22.45.69,1.09,1.04,1.44l6.19,6.19c.35.35,1.04.64,1.53.64h5.67c.49,0,1.18-.29,1.53-.64l1.22-1.21c.35-.35,1.04-.64,1.53-.64h8.15c.49,0,1.19.29,1.53.64l1.22,1.21c.35.35.82.99,1.04,1.44l4.16,8.34c.22.44.69,1.09,1.04,1.44l3.7,3.7c.35.35.64,1.04.64,1.53v8.15c0,.5.08,1.3.18,1.78l2.14,10.67c.1.48.18,1.29.18,1.78v8.15c0,.49.18,1.26.4,1.7l1.68,3.38c.22.44.53,1.19.69,1.65l.68,2.03c.15.48.57,1.14.92,1.49l1.22,1.21c.35.36,1.04.58,1.52.51l6.93-.99c.48-.07,1.17-.41,1.52-.76l8.68-8.68c.35-.35.83-1,1.06-1.43l4.31-7.99c.24-.43.66-1.12.94-1.53l6.24-8.85c.29-.41.52-1.14.52-1.63v-3.18c0-.49-.29-1.19-.63-1.53l-1.22-1.22c-.35-.35-.64-1.04-.64-1.53v-5.67c0-.49.29-1.18.64-1.53l6.36-6.34c.35-.35.86-.97,1.13-1.38l3.81-5.82c.28-.42.78-1.04,1.13-1.39l3.7-3.7c.36-.35.64-1.04.64-1.53v-.69c0-.5-.4-.9-.9-.9h-8.15c-.5,0-1.18-.3-1.51-.66l-8.03-8.63c-.34-.36-.74-1.04-.9-1.51l-5.51-16.43c-.16-.47.06-1.05.48-1.28.42-.24.95-.08,1.19.36l5.77,10.51c.24.44.67,1.12.96,1.53l6.49,9.03c.29.4.89.56,1.34.37l6.79-3.06c.45-.2,1.15-.61,1.55-.9l3.17-2.33c.4-.3,1.13-.53,1.62-.53h.61c.5,0,1.19-.29,1.54-.64l5.96-5.97c.36-.35.36-.92,0-1.27l-1.14-1.14c-.35-.35-1.03-.64-1.54-.64h-.61c-.5,0-1.18-.3-1.51-.66l-1.08-1.19c-.33-.37-.92-.42-1.3-.1l-1.07.84c-.38.31-.99.29-1.37-.04l-5.98-5.48c-.37-.34-.37-.9-.03-1.24l1.15-1.14c.35-.35.92-.35,1.27,0l3.56,3.56c.35.35,1.04.72,1.52.81l5.2,1.04c.49.09,1.28.2,1.77.25l10.54.88c.49.04,1.18.36,1.53.71l5.97,5.96c.35.35.76,1.02.92,1.48l1.84,5.53c.15.47.41,1.24.57,1.71l1.84,5.53c.16.47.57,1.14.92,1.49l2.35,2.35c.35.35.92.35,1.27,0l2.35-2.35c.35-.35.85-.98,1.13-1.38l8.66-12.99c.27-.41.79-1.03,1.14-1.38l1.14-1.14c.35-.35,1.04-.63,1.53-.63h.62c.49,0,1.3-.01,1.8-.02l1.59-.04v.05h4.34c.06-1.64.11-3.27.11-4.91,0-30.59-11.65-58.51-30.74-79.56"/><path class="cls-1" d="m91.84,148.28s0,0,.02-.02c0-.03,0-.05,0-.03-.01.01-.02.03-.02.05"/><path class="cls-1" d="m276.02,185.39l1.39-1.34c.51-.49.76-1.45.56-2.12l-.68-2.28c-.21-.67-.77-.82-1.28-.33l-3.05,3.06c-.5.5-.5,1.31,0,1.81l1.21,1.19c.5.5,1.33.51,1.84,0"/><path class="cls-1" d="m224.01,230.17l1.77-3.29c.23-.43.6-1.16.81-1.6l3.25-6.9c.21-.45.46-1.21.55-1.69l.29-1.52c.09-.48-.11-1.15-.44-1.49-.34-.33-.89-.32-1.24.03l-3.55,3.56c-.35.35-1.05.63-1.54.63h-.61c-.5,0-.9.41-.9.9v3.03c0,.5-.29,1.19-.64,1.54l-1.14,1.15c-.36.34-.64,1.03-.64,1.53v.62c0,.49.3,1.18.65,1.52l2.29,2.17c.36.34.85.27,1.08-.17"/><path class="cls-1" d="m177.25,141.17l1.35-1.36c.42-.41.28-.75-.31-.75h-2.62c-.59,0-.8.4-.48.89l.72,1.08c.32.49.93.55,1.34.13"/><path class="cls-1" d="m194.95,142.78l.54-.43c.51-.41.56-1.13.11-1.61l-.99-1.04c-.45-.48-1.35-.78-2.01-.67l-1.48.24c-.65.11-.8.57-.34,1.03l2.39,2.38c.47.46,1.27.51,1.78.09"/><path class="cls-1" d="m150.12,114.17l7.52-.19c.5-.02.89-.29.88-.61,0-.31.26-.87.6-1.23l1.16-1.23c.34-.36.62-1.05.62-1.55v-2.58c0-.49-.4-.9-.9-.9h-.61c-.49,0-.9-.41-.9-.9v-.62c0-.5-.29-1.18-.63-1.54l-3.56-3.55c-.35-.35-.35-.92,0-1.27l1.15-1.15c.35-.35.35-.92,0-1.27l-2.35-2.35c-.35-.35-.92-.35-1.27,0l-2.35,2.35c-.35.35-.64,1.03-.64,1.53v3.03c0,.5.4.9.9.9h.62c.49,0,1.08.36,1.3.81l1.61,3.22c.23.44.13,1.1-.21,1.46l-.38.41c-.33.36-.53,1.05-.43,1.54l.02.1c.1.48.12,1.02.04,1.2-.08.17-.49.35-.91.37-.42.03-.78.46-.79.96v.05c-.02.5-.24,1.24-.51,1.65l-.39.62c-.27.42-.08.74.41.74"/><path class="cls-1" d="m144.68,109.36h3.03c.5,0,1.19-.28,1.54-.63l1.14-1.15c.35-.35.35-.92,0-1.27l-1.14-1.14c-.35-.35-.29-.84.14-1.09l.31-.18c.43-.24.45-.67.05-.97l-.4-.29c-.4-.3-1.14-.53-1.63-.53h-.61c-.5,0-1.06.37-1.27.82l-.09.19c-.21.45-.73.95-1.16,1.11-.44.16-.8.7-.8,1.19v3.03c0,.49.41.9.9.9"/><path class="cls-1" d="m94.11,170.99l-1.1-1.1c-.34-.34-1.01-.62-1.48-.62h-2.93c-.48,0-1.14-.28-1.48-.62l-1.1-1.1c-.34-.34-1.01-.62-1.48-.62h-.59c-.48,0-1.15.28-1.48.62l-1.1,1.1c-.34.34-.22.62.26.62h2.93c.48,0,1.15.28,1.48.62l1.1,1.1c.34.34,1,.61,1.48.61h5.26c.48,0,.59-.28.26-.61"/><path class="cls-1" d="m100.64,171.97h-.5c-.4,0-.95.22-1.23.48-.27.28-.71.28-.99,0-.27-.26-.49-.16-.5.25v.5c0,.4-.34.73-.74.73h-.51c-.4,0-.5.24-.21.52l.93.93c.29.29.75.3,1.02.03.28-.27.72-.27.99,0,.27.27.82.45,1.22.38l.33-.05c.4-.06.99-.27,1.31-.47.32-.19.81-.57,1.08-.84.27-.27.26-.73-.03-1.01l-.93-.94c-.29-.29-.85-.52-1.25-.52"/><path class="cls-1" d="m90.97,173.95c-.48,0-.59.28-.25.62l1.07,1.07c.34.34.87.36,1.19.04.32-.31.32-.83,0-1.15-.32-.31-.96-.58-1.44-.58h-.56Z"/><path class="cls-1" d="m145.02,83.92c.25.25.46.75.47,1.13v.43c.01.38.32.69.7.69h.46c.37,0,.89.21,1.15.46.25.25.77.46,1.15.46h2.3c.38,0,.9-.22,1.16-.49l2.65-2.68c.26-.27.26-.71,0-.98l-1.69-1.73c-.26-.27-.79-.49-1.16-.5l-2.34-.03c-.37,0-.9.2-1.18.47l-.88.85c-.27.26-.72.29-.98.06-.27-.22-.7-.64-.97-.91l-.83-.89c-.26-.27-.68-.27-.94,0l-.87.9c-.26.27-.48.8-.48,1.18v.46c0,.38.31.69.68.69h.46c.37,0,.89.2,1.14.44"/><path class="cls-1" d="m83.93,99.61c-.47-.1-1.14.09-1.49.41l-1.04.94c-.36.32-.37.86-.03,1.19l.69.68c.34.34.9.34,1.25.02l2.3-2.16c.35-.33.25-.68-.21-.77l-1.47-.31Z"/><path class="cls-1" d="m143.24,212.96c-1.01-.48-2.34-1.35-2.96-1.93-.62-.57-2.53-1.38-4.25-1.8-1.72-.42-3.69-.85-4.37-.93-.69-.1-2.49-.85-4.01-1.7-1.52-.84-4.03-2.7-5.57-4.14-1.54-1.44-3.78-2.57-4.97-2.53-1.19.04-4.19-1.81-6.65-4.11-2.47-2.29-5.95-4.13-7.74-4.06-1.79.06-3.76-.36-4.37-.93-.62-.57-2.59-1-4.37-.93-.69.03-1.43.16-2.14.37l-3.65-3.68c-.34-.34-.95-.42-1.36-.17l-1,.59c-.41.25-1.08.23-1.48-.03l-.52-.33c-.4-.26-.73-.87-.72-1.34l.03-1.71c0-.47-.28-1.11-.66-1.42l-2.69-2.23c-.37-.3-1.05-.64-1.52-.74l-1.92-.43c-.47-.1-.57-.47-.24-.8l1.1-1.1c.34-.34.61-1.01.61-1.48v-2.93c0-.48-.39-.87-.87-.87h-.59c-.48,0-1.15.28-1.49.61l-1.1,1.11c-.34.33-1.01.61-1.49.61h-3.03c-.48,0-.87.02-.87.04,0,.03-.38.04-.87.03h-.56c-.48,0-1.14-.3-1.48-.64l-1.08-1.11c-.33-.34-.6-1.01-.59-1.49l.04-2.98c0-.47,0-1.26,0-1.73l-.02-2.82c0-.48.26-1.13.58-1.46.32-.33.87-.87,1.2-1.21l2.27-2.27c.34-.33,1-.62,1.48-.62h9.92c.48,0,1.15.29,1.49.62l1.1,1.1c.34.34.61,1.01.61,1.49v.59c0,.48.28,1.15.62,1.48l1.1,1.1c.34.34.89.34,1.23,0l1.1-1.1c.34-.33.34-.89,0-1.23l-1.1-1.1c-.34-.34-.62-1.01-.62-1.49v-2.92c0-.48.28-1.15.61-1.49l5.78-5.83c.33-.34.61-1.01.61-1.48v-.54c0-.48-.28-1.15-.62-1.49l-1.1-1.1c-.33-.33-.35-.88-.03-1.2.32-.32.86-.3,1.2.03l1.1,1.11c.34.34.88.35,1.2.03.32-.32.58-.98.58-1.45v-.59c0-.49.26-1.16.59-1.51l6.31-6.85c.33-.35.97-.73,1.43-.83l1.45-.34c.47-.11,1.19,0,1.61.22l1.84,1.02c.42.23.76.8.77,1.28v.57c0,.47.4.86.88.85h.74c.48-.02,1.14-.31,1.47-.66l1.73-1.8c.33-.34.23-.73-.23-.86l-3.76-1.06c-.46-.13-1.11-.51-1.45-.85l-1.1-1.11c-.34-.33-.51-.99-.38-1.45l.06-.22c.13-.46-.15-.9-.62-.97l-1.15-.18c-.48-.07-1.14.15-1.48.49l-3.43,3.44c-.34.34-.88.35-1.2.03-.32-.31-.3-.85.03-1.2l4.6-4.6c.34-.34,1.01-.62,1.48-.62l5.95-.05c.48,0,.69.34.47.76l-1.04,1.99c-.22.42-.14,1.02.18,1.34.32.32.97.57,1.45.58h5.18c.48,0,1.13.28,1.45.6.32.32.84.32,1.17,0s.58-.98.58-1.45v-.6c0-.48-.28-1.15-.62-1.49l-2.27-2.27c-.34-.34-.31-.87.06-1.17l.15-.13c.37-.29,1.06-.55,1.55-.55h1.47c.48,0,1.05-.35,1.28-.78l.39-.72c.23-.42.13-1.05-.21-1.38l-1.1-1.1c-.34-.34-1-.62-1.49-.61l-2.94.02c-.48,0-1.16.11-1.52.22-.36.12-.83-.11-1.04-.51-.21-.39-.32-1.1-.24-1.58h0c.08-.48.04-1.25-.09-1.71l-.08-.27c-.13-.47-.45-1.17-.71-1.56l-3.7-5.56c-.27-.39-.76-.45-1.09-.1l-3.45,3.46c-.34.34-.99.49-1.44.34l-1.85-.61c-.45-.16-1.09-.54-1.4-.87-.32-.32-.31-.86.03-1.19l1.1-1.1c.34-.34.34-.89,0-1.23l-3.44-3.44c-.34-.34-1-.61-1.49-.61h-2.91c-.48,0-.87.39-.87.87v2.93c0,.47-.03,1.26-.06,1.73l-.35,4.79c-.04.48-.25,1.21-.49,1.63l-1.49,2.63c-.23.42-.72,1.01-1.09,1.33l-3.37,2.89c-.36.32-.99.51-1.41.44-.42-.07-.92-.49-1.11-.92l-1.71-3.79c-.2-.44-.71-.97-1.14-1.18l-7.29-3.57c-.43-.21-.62-.73-.42-1.17l1.5-3.34c.19-.44.56-1.13.81-1.54l2.42-3.94c.25-.41.83-.86,1.28-1l.56-.18c.46-.15.8-.65.77-1.13l-.02-.21c-.03-.48.14-1.11.38-1.4.25-.3.84-.54,1.32-.54h.57c.48,0,1.15.24,1.49.54.34.3.89.3,1.22,0,.32-.3.31-.81-.03-1.15l-2.27-2.27c-.33-.34-.33-.89.02-1.22l1.17-1.12c.35-.33.88-.88,1.19-1.22.31-.34.75-.96.97-1.38l1.2-2.26c.23-.42.66-1.06.97-1.43l1.02-1.19c.31-.37.96-.67,1.43-.67h.6c.48,0,1.22.17,1.65.38l3.18,1.51c.43.21,1.09.62,1.46.93l1.41,1.16c.37.3.77.81.89,1.13.12.31-.08.83-.45,1.14l-.85.74c-.36.32-.61.96-.56,1.44l.48,4.56c.05.48.48.88.96.92l7.63.48c.48.03.9-.33.95-.81l.05-.62c.04-.47-.26-1.06-.68-1.3l-2.17-1.24c-.41-.23-.59-.74-.39-1.11.2-.38.69-.48,1.09-.21l1.95,1.28c.4.26.97.17,1.25-.21l.51-.66c.29-.37.26-.97-.07-1.31l-3.6-3.75c-.33-.34-.86-.92-1.17-1.28l-8.62-9.85c-.16-.18-3-2.87-4.9-1.65-.09.06-.15.12-.23.14-20.75,21.35-33.54,50.48-33.54,82.53,0,5.72.42,11.34,1.21,16.85,1.06,3.07,3.63,3.72,5.01,3.84,0-.06-.01-.12-.03-.17.02,0,.05.02.07.03h0c.47.09,1.11-.09,1.43-.41.32-.32.97-.56,1.44-.55l.62.02c.48.01,1.24.14,1.7.28l2.04.63c.46.14,1.1.54,1.43.89l.92.97c.33.34.98.69,1.46.77l2.58.42c.47.09,1.11.44,1.43.79l1.34,1.52c.32.35.58,1.04.57,1.52l-.03,3.54c0,.48.39.87.86.87h.66c.48,0,1.15.28,1.48.62l1.1,1.1c.34.34.89.34,1.23,0l1.1-1.1c.34-.34.89-.34,1.22,0l1.46,1.51c-.82,1.02-1.64,3.35-1.85,5.34-.23,2.1-1.35,4.82-2.5,6.06-1.15,1.23-1.97,4.58-1.82,7.44.15,2.86,1.9,7.3,3.89,9.88,1.99,2.57,4.78,5.42,6.19,6.33,1.41.92,3.04,3.63,3.62,6.04.47,1.94,1.11,4.92,1.59,7.33.07.31.14.66.2,1.04.04.19.07.38.11.56.04.21.1.42.15.63-.03-.03-.06-.05-.09-.09.42,2.82.91,6.57,2.77,8.03,6.83,5.47,14.27,10.2,22.21,14.07,1.18-.29.64-3.18.26-4.72-.03-.02-.06-.03-.09-.04,0-.15-.01-.3-.05-.48-.07-.26-.12-.43-.12-.43h.02c-.49-1.91-1.05-3.86-1.28-4.44-.24-.61-.41-1.81-.39-2.65.03-.85.33-2.16.66-2.92.33-.77.84-1.65,1.13-1.95.29-.31.76-.81,1.04-1.12.29-.31,1.47-1.57,2.61-2.81,1.15-1.23,2.06-3.22,2.02-4.41-.05-1.19.39-2.67.97-3.29.57-.62,2.02-1.15,3.21-1.2,1.19-.04,3.58-1.59,5.3-3.44,1.73-1.86,3.1-4.34,3.06-5.53-.04-1.2.87-3.18,2.01-4.42,1.15-1.24,1.89-3.27,1.65-4.54-.24-1.26-1.27-2.68-2.28-3.17"/><path class="cls-1" d="m120.94,56.25c.84.24,2.2.36,2.92.41.72.05,3.71.12,4.03.29l2.14,1.09c.31.16.86.3,1.21.3l2.29.03c.35,0,.62.3.6.64l-.02.38c-.02.35-.24.85-.48,1.11l-.77.83c-.24.25-.6.65-.8.87-.2.23-.37.7-.39,1.05l-.03.55c-.02.35.16.84.42,1.09l6.8,6.78c.25.24.71.57,1.04.71l2.25,1.01c.32.14.79.07,1.05-.16l.75-.69c.26-.23.48-.72.49-1.07l.06-2.3c.01-.35.22-.84.46-1.1l.7-.73c.25-.25.65-.67.9-.91l2.49-2.46c.25-.25.66-.65.91-.9l4.3-4.28c.25-.25.74-.44,1.09-.44h.82c.35.02.81-.21,1.02-.49l1.23-1.65c.21-.28.61-.68.9-.88l2.01-1.45c.29-.2.69-.61.89-.89l.75-1.07c.2-.29.36-.81.35-1.16l-.08-2.13c0-.35,0-.93,0-1.28l.02-.48c0-.35.28-.76.6-.91l3.91-1.85c.11-.05.17-.11.19-.15,2.41-.15,4.85-.23,7.3-.23,19.58,0,38.04,4.96,54.15,13.68,0,0,1.98.88,2.9-.74,1.01-1.77-.55-2.9-.55-2.9-16.81-9.15-36.06-14.38-56.51-14.38s-40.2,5.34-57.16,14.72c.56.68,2.03,1.91,2.86,2.14"/><path class="cls-1" d="m277.07,202.95h-.45c-.37,0-.88.21-1.14.47l-3.55,3.54c-.25.25-.69.25-.94,0l-.86-.85c-.26-.26-.68-.26-.94,0l-3.54,3.55c-.26.26-.47.48-.47.48-.01.01-.23.22-.48.48l-.83.83c-.26.26-.77.48-1.14.48h-2.25c-.37,0-.88.21-1.15.47l-2.64,2.65c-.26.26-.47.77-.47,1.14v2.25c0,.38.21.88.47,1.15l.85.85c.26.26.47.77.47,1.15v5.84c0,.37.21.88.48,1.14l.84.86c.26.25.69.25.95,0l.85-.86c.26-.26.78-.47,1.14-.45l2.94.06c-20.92,26.73-53.47,43.95-89.96,43.95-7.95,0-15.7-.84-23.19-2.4,0,0-2.11-.25-2.52,1.49-.47,2,1.42,2.71,1.42,2.71,7.84,1.65,15.96,2.53,24.29,2.53,47.94,0,89.32-28.61,107.97-69.64l-4.87-3.55c-.33-.17-.9-.3-1.27-.3"/><path class="cls-1" d="m483.57,215.02c-2.87,0-19.14-.38-28.74-.38s-25.66.38-28.53.38v-10.91c11.49,0,15.71-2.5,15.71-15.9v-77.19c0-13.42-4.21-15.9-15.71-15.9v-10.93c2.87,0,19.16.39,28.73.39s25.67-.39,28.54-.39v10.93c-11.49,0-15.7,2.49-15.7,15.9v77.19c0,13.4,4.22,15.9,15.7,15.9v10.91Z"/><path class="cls-1" d="m758.54,215.02c-2.87,0-19.14-.38-28.73-.38s-25.66.38-28.53.38v-10.91c11.49,0,15.71-2.5,15.71-15.9v-67.82l-40.42,94.63h-17.06l-40.61-94.63v67.05c0,13.39,5.75,16.66,17.24,16.66v10.91c-5.75,0-15.34-.38-24.9-.38s-19.35.38-25.1.38v-10.91c11.49,0,18.21-3.27,18.21-16.66v-76.43c0-13.42-8.05-15.9-19.55-15.9v-10.93c2.87,0,15.14.39,24.72.39s16.46-.39,22.22-.39l42.71,99.62,42.53-99.62c4.4,0,10.15.39,19.72.39s16.09-.39,21.84-.39v10.93c-11.48,0-15.69,2.49-15.69,15.9v77.19c0,13.4,4.21,15.9,15.69,15.9v10.91Z"/><path class="cls-1" d="m563.9,95.11c-11.49,0-15.71,2.49-15.71,15.9v77.19c0,20.88-3.07,30.45-8.82,39.46-9.38,14.93-31.99,24.06-40.04,27.32l-2.4-5.07c14.94-10.84,19.07-18.62,22.13-27.24,2.69-7.48,3.26-16.86,3.26-34.48v-77.19c0-15.33-6.33-15.9-17.81-15.9v-10.93c2.88,0,20.12.39,29.69.39s26.81-.39,29.7-.39v10.93Z"/><path class="cls-1" d="m17.42,158.5c2.64.18,4.94-.41,5.15-3.4.2-2.99-1.99-3.87-4.63-4.05-2.65-.17-4.94.39-5.15,3.39-.2,2.99,1.99,3.87,4.63,4.06m7.46-6.93l1.37-3.31,2.62.19-4.57,9.38c-1.1,2.5-3.65,3.45-7.05,3.2-4.39-.29-7.08-2.34-6.77-6.77.3-4.43,3.25-6.08,7.62-5.78,3.28.22,5.6,1.43,6.46,3.85h.02l.3-.76Z"/><path class="cls-1" d="m20.43,145.16l-8.73-1.48.43-2.49,8.73,1.47c1.67.28,3.06-.03,3.51-2.66.45-2.63-.77-3.38-2.45-3.66l-8.72-1.48.43-2.49,8.73,1.48c3,.5,5.04,2.22,4.31,6.53-.75,4.32-3.24,5.25-6.23,4.76"/><path class="cls-1" d="m20.44,124.26l3.5,2.31,1.08-4-4.18.23-2.47.13,2.08,1.33Zm-4.89-.57l.77-2.84,14.96-1.24-.71,2.62-3.34.23-1.45,5.36,2.77,1.89-.71,2.62-12.3-8.62Z"/><polygon class="cls-1" points="22.73 102.65 24.9 103.46 22.28 110.41 25.38 111.59 27.72 105.41 29.89 106.24 27.56 112.41 30.98 113.69 33.72 106.42 35.9 107.22 32.26 116.86 19.22 111.96 22.73 102.65"/><path class="cls-1" d="m33.1,94.8c.39-.79.76-1.9-.8-2.66-1.57-.76-2.22.2-2.61.98l-1.51,3.1,3.41,1.66,1.51-3.09Zm5.49,6.51l-1.11,2.25-12.5-6.1,2.55-5.2c1.07-2.19,2.82-3.94,5.9-2.43,2.22,1.08,2.66,2.64,2.34,4.23l6.65-.54-1.3,2.66-6.29.41-1.14,2.32,4.91,2.4Z"/><rect class="cls-1" x="37.47" y="79.13" width="2.51" height="13.92" transform="translate(-55.2 76.61) rotate(-60.02)"/><polygon class="cls-1" points="50.66 80.17 49.26 82.27 39.62 75.81 37.35 79.21 35.42 77.92 41.36 69.03 43.3 70.32 41.03 73.72 50.66 80.17"/><polygon class="cls-1" points="50.07 57.92 51.88 59.38 47.23 65.18 49.8 67.26 53.93 62.12 55.75 63.58 51.62 68.72 54.46 71 59.34 64.94 61.15 66.39 54.69 74.42 43.83 65.68 50.07 57.92"/><polygon class="cls-1" points="70.47 56.63 68.67 58.4 58.89 48.49 60.68 46.73 70.47 56.63"/><path class="cls-1" d="m70.34,49.63l-5.71-6.74,1.92-1.63,5.71,6.74c1.09,1.29,2.36,1.95,4.39.23,2.02-1.72,1.59-3.08.49-4.38l-5.71-6.74,1.92-1.63,5.71,6.73c1.96,2.32,2.42,4.95-.91,7.79-3.34,2.83-5.86,1.95-7.81-.37"/><path class="cls-1" d="m88.33,38.92c2.4-1.64,2.23-3.71.62-6.06-1.61-2.35-3.48-3.24-5.88-1.59l-2.02,1.39,5.26,7.66,2.01-1.4Zm-2.77,4.73l-7.9-11.48,4.1-2.83c3.52-2.42,6.59-1.9,9.31,2.05,2.72,3.98,2.11,7.02-1.42,9.44l-4.09,2.82Z"/><polygon class="cls-1" points="100.85 33.8 98.66 35.06 91.67 23.01 93.86 21.75 100.85 33.8"/><path class="cls-1" d="m108.98,27.18c1.7-.82,2.15-1.81,1.65-3.42l2.4-.85c.91,2.53.21,4.79-3.03,6.37-3.88,1.88-6.66.03-8.55-3.87-1.89-3.91-1.63-7.23,2.26-9.12,3.24-1.58,5.45-.73,6.87,1.56l-2.17,1.35c-.95-1.38-1.99-1.65-3.69-.82-2.59,1.25-2.09,3.57-.97,5.9,1.14,2.34,2.63,4.17,5.23,2.9"/><rect class="cls-1" x="115.94" y="11.28" width="2.53" height="13.93" transform="translate(1.53 44.51) rotate(-21.64)"/><path class="cls-1" d="m123.53,17.77l-2.6-8.44,2.4-.75,2.61,8.46c.49,1.61,1.41,2.72,3.95,1.92,2.54-.78,2.66-2.21,2.17-3.84l-2.61-8.44,2.42-.74,2.6,8.45c.9,2.9.29,5.5-3.88,6.79-4.18,1.3-6.15-.51-7.04-3.41"/><polygon class="cls-1" points="145.56 17.1 141.72 10.75 140.54 8.75 141.28 12.51 142.28 17.75 139.86 18.21 137.25 4.53 140.12 3.98 144.39 10.88 145.82 13.27 146.27 10.51 147.69 2.51 150.57 1.96 153.18 15.63 150.76 16.1 149.76 10.88 149.07 7.1 148.72 9.42 147.47 16.73 145.56 17.1"/><path class="cls-1" d="m162.06,9.54c-1.43.09-2.69-.98-2.78-2.41-.1-1.44.98-2.7,2.42-2.8,1.43-.1,2.7.97,2.8,2.43.11,1.41-1,2.66-2.44,2.78"/><path class="cls-1" d="m170.91,10.12l2.56-.25c.19,1.64,1.19,2.23,3.09,2.26,1.41-.01,3-.51,3.01-2.04,0-1.23-.72-1.74-3.04-1.99-2.57-.24-5.08-.91-5.08-3.9,0-2.94,2.38-4.22,5.09-4.19,3.67.03,5.33,1.66,5.56,4.3l-2.56.25c-.19-1.65-1.11-2.22-3.02-2.24-.95.02-2.54.34-2.55,1.91,0,.97.54,1.37,2.71,1.61,3.42.34,5.39.98,5.38,4.25,0,3.12-2.73,4.38-5.52,4.35-3.79-.03-5.37-1.55-5.63-4.32"/><path class="cls-1" d="m185.88,9.36l.95-8.79,2.5.26-.95,8.79c-.17,1.7.22,3.06,2.87,3.35,2.64.29,3.33-.97,3.51-2.66l.94-8.79,2.51.26-.95,8.79c-.33,3.03-1.91,5.18-6.26,4.71-4.34-.47-5.43-2.9-5.12-5.92"/><path class="cls-1" d="m204.51,5.25l-.67,3.26,3.26.64c1.05.22,1.78.04,2.05-1.3.28-1.32-.32-1.73-1.39-1.95l-3.24-.64Zm1.53,9.78c.81.16,2.07.32,2.4-1.33.34-1.66-.71-2.05-1.59-2.22l-3.46-.7-.72,3.57,3.38.67Zm-6.31,1.1l2.76-13.67,5.9,1.19c1.73.36,3.94,1.44,3.31,4.61-.28,1.41-1.08,2.18-1.8,2.45.89.61,1.38,1.88,1.06,3.52-.68,3.32-2.93,3.57-5.27,3.1l-5.96-1.21Z"/><polygon class="cls-1" points="219.26 17.73 221.29 14.9 226.03 8.32 228.69 9.12 219.52 21.18 217.13 20.45 216.19 5.34 218.86 6.15 219.15 14.25 219.26 17.73"/><polygon class="cls-1" points="241.29 14.15 240.41 16.29 233.53 13.49 232.28 16.57 238.37 19.06 237.49 21.21 231.39 18.73 230.02 22.11 237.22 25.04 236.33 27.18 226.81 23.31 232.07 10.39 241.29 14.15"/><polygon class="cls-1" points="246.65 24.27 246.43 21.73 244.91 24.69 242.1 30 239.88 28.83 246.39 16.49 248.44 17.57 249.36 26.18 249.59 28.71 251.13 25.76 253.91 20.45 256.15 21.63 249.64 33.97 247.58 32.87 246.65 24.27"/><polygon class="cls-1" points="255.61 37.7 253.49 36.36 260.9 24.56 263.03 25.88 255.61 37.7"/><polygon class="cls-1" points="264.02 43.46 261.99 41.99 268.82 32.57 265.51 30.19 266.88 28.3 275.52 34.56 274.16 36.44 270.85 34.05 264.02 43.46"/><polygon class="cls-1" points="286.6 43.96 285.06 45.71 279.47 40.82 277.28 43.35 282.24 47.66 280.72 49.42 275.75 45.08 273.36 47.85 279.22 52.95 277.69 54.7 269.94 47.95 279.09 37.43 286.6 43.96"/><path class="cls-1" d="m290.66,57.93c-1.98,1.75-3.19,3.79-1.21,6.05,1.98,2.24,4.14,1.3,6.13-.46,1.99-1.74,3.2-3.77,1.21-6.02-1.98-2.26-4.16-1.32-6.14.43m-1.69-1.9c3.29-2.91,6.64-3.39,9.58-.06,2.92,3.33,2.03,6.58-1.27,9.49-3.29,2.91-6.64,3.38-9.57.06-2.95-3.33-2.05-6.58,1.25-9.49"/><path class="cls-1" d="m307.03,70.77l-1.76-2.43-3.28,2.37,1.76,2.44c.51.71,1.38,1.48,2.81.46,1.43-1.04.97-2.12.46-2.83m-11.19,4.39l-1.46-2.05,11.3-8.16,3.13,4.32c1.36,1.88,2.11,4.39-.72,6.43-2.84,2.05-4.96.59-6.34-1.33l-1.65-2.29-4.26,3.07Z"/><path class="cls-1" d="m314.36,82.03l-1.55-2.58-3.44,2.09,1.55,2.57c.44.74,1.24,1.6,2.76.67,1.51-.91,1.14-2.02.68-2.76m-11.48,3.44l-1.31-2.16,11.94-7.21,2.74,4.56c1.22,2,1.76,4.56-1.24,6.35-3,1.8-4.98.17-6.19-1.84l-1.46-2.42-4.48,2.72Z"/><path class="cls-1" d="m317.88,96.62c.39.79,1.04,1.77,2.61,1,1.57-.76,1.2-1.87.83-2.67l-1.51-3.08-3.43,1.67,1.5,3.08Zm-8.52.33l-1.11-2.26,12.55-6.1,2.53,5.22c1.06,2.18,1.37,4.62-1.73,6.14-2.22,1.08-3.73.47-4.78-.76l-3.67,5.58-1.3-2.66,3.55-5.23-1.12-2.32-4.92,2.4Z"/><polygon class="cls-1" points="330.96 112.29 328.78 113.11 326.18 106.14 323.08 107.3 325.38 113.47 323.21 114.27 320.89 108.13 317.47 109.39 320.2 116.66 318.02 117.49 314.42 107.85 327.47 102.97 330.96 112.29"/><path class="cls-1" d="m322.97,119.76l.92,2.4c-1.51.61-1.82,1.74-1.33,3.58.38,1.35,1.3,2.75,2.78,2.35,1.18-.31,1.48-1.16,1.1-3.47-.46-2.52-.49-5.13,2.41-5.92,2.82-.78,4.68,1.15,5.39,3.77.96,3.55-.17,5.59-2.66,6.51l-.92-2.4c1.54-.61,1.83-1.66,1.33-3.52-.26-.9-1-2.34-2.51-1.94-.94.27-1.2.91-.84,3.03.59,3.4.5,5.47-2.65,6.34-3,.82-4.95-1.46-5.68-4.15-.97-3.66.05-5.58,2.66-6.59"/><path class="cls-1" d="m326.65,134.15l.7,2.46c-1.58.47-1.99,1.56-1.66,3.45.24,1.37,1.01,2.85,2.53,2.59,1.2-.2,1.6-1.01,1.42-3.34-.22-2.57.02-5.17,2.95-5.68,2.89-.52,4.56,1.59,5.03,4.27.6,3.61-.7,5.53-3.27,6.23l-.69-2.47c1.6-.47,1.98-1.48,1.67-3.37-.19-.94-.78-2.44-2.33-2.17-.96.18-1.27.78-1.12,2.94.29,3.44,0,5.49-3.23,6.05-3.06.54-4.79-1.92-5.25-4.66-.64-3.75.58-5.57,3.26-6.31"/><path class="cls-1" d="m332.12,151.3c-2.64.19-4.84,1.1-4.64,4.08.21,3,2.51,3.56,5.15,3.37,2.63-.19,4.84-1.07,4.63-4.06-.2-2.99-2.5-3.58-5.14-3.39m-.17-2.54c4.39-.32,7.34,1.34,7.64,5.77.3,4.43-2.39,6.49-6.78,6.79-4.38.32-7.34-1.33-7.64-5.76-.3-4.44,2.39-6.49,6.78-6.8"/><path class="cls-1" d="m192.31,331.55l-3.44,4.35-3.84-9.34s.03-.04.04-.06l2.58-6.14,2.18,5.15,2.47,6.04Zm-9.51-6.12s0,.02,0,.02c-.02.03-.04.08-.05.11,0,.02,0,.03,0,.06-.12.26-.66,1.14-2.88,1.14-2.52,0-2.31-1.24-2.31-1.24l5-11.9,4.26-10.39,3.44,4.37-2.49,6.02-2.41,5.76h0s-2.55,6.06-2.55,6.06Zm-9.09.08s-.27,1.24-2.9,1.24-2.32-1.24-2.32-1.24l5-11.9s.27-1.22,2.9-1.22,2.32,1.22,2.32,1.22l-5.01,11.9Zm-8.53,0l-4.27,10.39-3.44-4.35,2.49-6.04,4.86-11.58.1-.23s.03-.08.05-.11c0-.02.07-.15.18-.31.03-.02.03-.05.05-.08.33-.36,1.04-.82,2.68-.82,2.52,0,2.31,1.22,2.31,1.22l-5,11.9Zm-5.67-5.38l-.02.04v-.07s0,0,.02.03m-.81-6.52l-2.49-6.02,3.44-4.37,3.51,8.54c-.26.33-.41.63-.51.88l-2.19,5.2-1.77-4.23Zm190.64-113.1c-1.82.35-3.68,1.03-5.55,1.97l-.11-.02c-.55.3-2.42,1.41-2.8,1.65,0,0-.17.16-.27.23-4.73,3.2-9.23,7.87-12.67,12.84,1.94-4.96,3.68-10.01,5.14-15.23h-.02c-.25-.76-.86-1.37-1.69-1.55-.82-.18-1.61.15-2.15.73h-.03c-2.13,7.49-4.79,14.72-7.89,21.68-.36-6.77-4.52-15.12-9.28-20.43-3.39,9.52.74,19.68,6.95,25.4-4.46,9.08-9.71,17.65-15.69,25.62,1.07-6.67-1.19-15.67-4.67-21.85-5.34,8.55-3.52,19.3,1.27,26.23-6.27,7.79-13.24,14.92-20.8,21.36,2.28-6.27,1.97-15.24-.04-21.85-6.96,7.12-7.58,17.83-4.54,25.61-7,5.54-14.45,10.5-22.29,14.79,2.88-5.6,4.17-13.4,3.67-19.6-7.97,5.19-10.98,14.87-10.1,22.92-9.74,4.79-20.03,8.59-30.69,11.33,5.29-4.41,9.33-13.39,10.44-20.71-9.61,3.48-14.83,13.34-15.19,21.84-6.91,1.55-13.98,2.68-21.15,3.3l.91-2.17,2.49-6.05c.35-.83.22-1.8-.36-2.51l-3.43-4.35c-.48-.61-1.21-.97-1.97-.97-.11,0-.23.02-.34.04-.88.11-1.64.7-1.98,1.53l-3.86,9.39c-.07-.1-.12-.19-.2-.28-.84-1.01-2.2-1.52-4.03-1.52-2.38,0-3.7.79-4.46,1.6-.02-.02-.03-.06-.05-.09-.85-1-2.21-1.51-4.03-1.51-1.07,0-1.91.18-2.6.43l-3.29-8.03c-.34-.83-1.09-1.41-1.98-1.53-.11-.02-.23-.04-.35-.04-.76,0-1.49.35-1.97.97l-3.44,4.35c-.56.71-.69,1.68-.35,2.51l2.49,6.03.75,1.79c-7.07-.78-14.01-2.06-20.81-3.75-.17-1.1-.72-2.17-1.66-3.02-3.66-3.3-7.07-6.93-10.11-10.75-1.17-1.46-2.98-2.21-4.82-1.99-.8.1-1.54.37-2.21.79-1.49.96-2.3,2.55-2.2,4.26,0,0,.07.76.05.8,0,0-1.17-2.06-1.55-2.84l-.05-.12c-1.21-2.48-2.3-5.04-3.28-7.62-.85-2.26-3.11-3.65-5.5-3.35-.26.03-.51.09-.78.17-1.32.36-2.43,1.24-3.08,2.41-.58,1.15-.69,2.48-.26,3.73.13.47.32.93.49,1.4l.04.13c0,.08-.03.12-.03.12-.47,0-2.19-1.08-3.58-1.93l-1.15-.71h0c-.31-.19-.6-.4-.92-.61-1.21-.79-2.62-1.12-3.99-.95-.59.07-1.14.25-1.66.51-1.38-.86-2.75-1.74-4.1-2.65.16-1.04-.03-2.16-.6-3.23-2.37-4.33-4.39-8.86-6.02-13.5-.64-1.75-2.08-3.04-3.91-3.44-.79-.16-1.58-.15-2.36.02-1.71.41-3.01,1.66-3.48,3.28,0,0-.17.76-.2.79,0,0-.41-2.34-.52-3.19l-.02-.13c-.31-2.76-.51-5.53-.58-8.26-.06-2.42-1.75-4.46-4.1-4.98-.26-.04-.52-.1-.8-.1-1.36-.1-2.7.35-3.68,1.28-.95.86-1.48,2.09-1.49,3.44,0,.49,0,.97.01,1.47v.13c-.05.06-.07.1-.07.1-.43-.16-1.72-1.74-2.76-2.99l-.84-1.06h0c-.22-.28-.44-.57-.66-.87-.89-1.15-2.12-1.94-3.45-2.23-.29-.06-.56-.09-.84-.1-1.28-1.63-2.53-3.26-3.76-4.94.44-.85.63-1.86.51-2.91-.57-4.9-.76-9.86-.54-14.77.07-1.86-.8-3.61-2.35-4.66-.65-.45-1.4-.73-2.17-.86-1.75-.26-3.43.41-4.48,1.75,0,0-.43.63-.47.64,0,0,.48-2.31.71-3.16l.03-.13c.72-2.66,1.58-5.32,2.54-7.88.84-2.26.05-4.79-1.95-6.14-.22-.15-.43-.29-.68-.39-1.23-.61-2.65-.68-3.9-.19-1.22.44-2.17,1.39-2.68,2.63-.18.45-.36.9-.54,1.36l-.06.12c-.05.05-.1.07-.1.07-.37-.31-.95-2.25-1.43-3.81l-.41-1.3h0c-.09-.35-.19-.7-.29-1.06-.4-1.39-1.23-2.57-2.37-3.34-.73-.52-1.56-.78-2.39-.84-.63-1.94-1.23-3.91-1.79-5.89h-.03c-.54-.58-1.33-.91-2.15-.73-.84.18-1.44.79-1.7,1.55h0c.62,2.2,1.29,4.37,2,6.52-.19.23-.38.46-.53.72-.8,1.35-.99,3.03-.52,4.68.52,1.87,1.11,3.77,1.74,5.67.24.83.25,1.16.23,1.32-.02-.02-.05,0-.08-.02-.48-.32-.95-.59-1.41-.89-1.26-.85-2.74-1.07-4.04-.67-1.24.42-2.22,1.41-2.74,2.79-.99,2.72.2,6.29,2.64,7.94l.29.18c2.12,1.28,4.3,2.49,6.51,3.62,0,0,5.02,2.61,5.03,2.7-.04-.02-1.06,0-1.06,0-1.65.16-2.98,1.21-3.56,2.88-.9,2.54.31,5.83,2.77,7.52.17.1.34.2.5.3,4.89,2.7,9.98,5.02,15.12,6.89.9.33,1.8.38,2.63.21,1.03,1.39,2.07,2.78,3.13,4.13-.5.62-.85,1.37-1,2.22-.22,1.54.23,3.18,1.26,4.51,1.19,1.54,2.45,3.08,3.74,4.62.54.68.66.98.71,1.12-.02,0-.05.02-.09.02-.55-.09-1.07-.19-1.63-.31-1.5-.3-2.94.04-3.99.91-1,.86-1.53,2.14-1.47,3.61.09,2.92,2.5,5.74,5.38,6.38l.33.06c2.45.41,4.93.71,7.41.93,0,0,5.62.53,5.67.59-.03.02-.99.44-.99.44-1.46.75-2.3,2.24-2.22,3.98.11,2.68,2.47,5.31,5.36,5.94.21.03.4.08.61.1,5.53.66,11.13.91,16.58.73.84-.03,1.62-.25,2.29-.62,1.3.88,2.62,1.72,3.95,2.55-.1.53-.11,1.09,0,1.67.27,1.53,1.24,2.92,2.66,3.85,1.62,1.07,3.31,2.11,5.04,3.13.73.46.95.72,1.04.84-.03,0-.05.03-.09.06-.54.07-1.09.16-1.63.23-1.51.22-2.77,1.01-3.48,2.17-.66,1.13-.75,2.52-.21,3.89,1.04,2.7,4.27,4.62,7.19,4.26l.33-.04c2.45-.44,4.88-.95,7.28-1.56,0,0,5.51-1.33,5.57-1.29-.03.02-.81.7-.81.7-1.13,1.23-1.43,2.9-.77,4.51.98,2.52,4.06,4.22,7.02,3.86.2-.03.39-.08.59-.1,5.46-1.19,10.81-2.8,15.91-4.75.71-.27,1.29-.68,1.79-1.18,7.89,1.97,16,3.38,24.25,4.16l-1.66,3.96-2.49,6.02c-.34.85-.21,1.82.35,2.53l3.44,4.36c.48.6,1.21.95,1.97.95.13,0,.24-.02.35-.02.89-.13,1.64-.71,1.97-1.54l3.69-8.97c.86.9,2.16,1.38,3.89,1.38,2.71,0,4.06-1.03,4.74-1.94.08.16.17.3.28.43.84,1.01,2.19,1.51,4.02,1.51,1.45,0,2.5-.3,3.29-.71l3.4,8.3c.35.83,1.1,1.41,1.97,1.54.12,0,.23.02.35.02.77,0,1.49-.35,1.97-.95l3.44-4.36c.56-.71.7-1.68.35-2.53l-2.49-6.01-1.65-3.95c7.12-.65,14.1-1.79,20.96-3.34.2.3.4.6.64.88,9.46,7.75,23.36,10.2,36.56,2.4h-.02c.7-.43,1.38-.84,2.07-1.31-1.42-1.19-3.14-2.18-5.06-3.05l-.05-.06c-.58-.25-2.63-.98-3.05-1.12,0,0-.24-.05-.35-.08-4.91-1.42-10.6-1.94-16.05-1.67,7.13-2.33,14.05-5.14,20.75-8.39.45.74,1.07,1.51,1.94,2.11,10.98,5.39,25.07,4.61,36.14-5.99l-.02-.02c.57-.55,1.15-1.1,1.72-1.72-1.65-.83-3.56-1.41-5.61-1.81l-.07-.06c-.62-.11-2.78-.36-3.22-.4,0,0-.25.02-.36.01-5.74-.32-12.22.68-18.01,2.57l-3.19.42c7.23-4.09,14.12-8.74,20.64-13.87.45.36.95.69,1.54.93,11.88,2.9,25.47-.9,34-13.63l-.04-.02c.46-.67.9-1.34,1.32-2.06-1.8-.46-3.78-.61-5.87-.56l-.08-.05c-.62.04-2.8.26-3.24.31,0,0-.23.06-.35.08-5.67.93-11.79,3.31-17.03,6.41l-.35.11c5.81-5.36,11.22-11.15,16.21-17.33.44.19.91.34,1.42.45,12.22.25,24.69-6.39,30.26-20.65l-.03-.02c.3-.74.57-1.5.84-2.28-1.85-.06-3.82.21-5.85.72l-.1-.03c-.59.15-2.66.84-3.08,1,0,0-.22.11-.33.16-5.26,2.1-10.67,5.67-15.07,9.76,4.27-6.3,8.12-12.92,11.5-19.87.45.07.92.13,1.42.1,11.99-2.38,22.73-11.55,25.1-26.69h-.03c.13-.8.25-1.59.32-2.43"/><path class="cls-1" d="m24.24,186.65c-1.75-.08-3,.59-4.23,1.42v-13.74c.56-1.32,1.83-2.26,3.7-2.3,1.86-.05,6.35,1.97,9.21,1.49.17,2.87.38,11.75.37,14.82-4.18-.04-7.3-1.61-9.06-1.69m-8.14,1.42c-1.22-.84-2.47-1.5-4.22-1.42-1.75.08-4.88,1.65-9.06,1.69-.01-3.07.2-11.94.37-14.82,2.86.48,7.35-1.54,9.22-1.49,1.87.04,3.13.98,3.69,2.3v13.74Zm19.66-17.5c-6.73.45-10.57-1.98-13.05-1.94-2.42.05-3.72.9-4.66,1.95-.94-1.05-2.24-1.91-4.65-1.95-2.49-.04-6.33,2.39-13.07,1.94-.07,1.77-.34,21-.34,21l14.93-.22c.55,1.11.9,1.4,3.03,1.42h.18c2.14-.02,2.48-.32,3.03-1.42l14.93.22s-.27-19.23-.34-21"/><path class="cls-1" d="m338.25,186.65c-1.75-.08-3,.59-4.23,1.42v-13.74c.56-1.32,1.82-2.26,3.69-2.3,1.86-.05,6.35,1.97,9.21,1.49.18,2.87.38,11.75.37,14.82-4.18-.04-7.3-1.61-9.06-1.69m-8.14,1.42c-1.22-.84-2.47-1.5-4.23-1.42-1.75.08-4.88,1.65-9.06,1.69-.01-3.07.21-11.94.37-14.82,2.85.48,7.35-1.54,9.22-1.49,1.87.04,3.13.98,3.69,2.3v13.74Zm19.66-17.5c-6.73.45-10.57-1.98-13.06-1.94-2.41.05-3.71.9-4.65,1.95-.93-1.05-2.24-1.91-4.66-1.95-2.48-.04-6.32,2.39-13.06,1.94-.07,1.77-.35,21-.35,21l14.93-.22c.56,1.11.9,1.4,3.04,1.42h.18c2.13-.02,2.47-.32,3.03-1.42l14.92.22s-.27-19.23-.34-21"/></g></svg>